<?xml version="1.0" encoding="UTF-8"?>
<svg id="Capa_1" data-name="Capa 1" xmlns="http://www.w3.org/2000/svg" viewBox="0 0 545.95 536.67">
  <defs>
    <style>
      .cls-1 {
        fill: #00a7bd;
      }
    </style>
  </defs>
  <path class="cls-1" d="M225.06,44.52c.28,.33,.48,.58,.65,.8-.01-.27-.19-.54-.65-.8Z"/>
  <path class="cls-1" d="M273.75,408.76q7.47,0,7.47-7.5,0-8.46-8.49-8.46-7.47,0-7.47,7.5,0,8.46,8.5,8.46Z"/>
  <path class="cls-1" d="M519.17,479.61c-3.92-18.68-12.84-34.46-26.6-47.55-1.59-1.52-1.93-2.31-.43-4.37,8.35-11.53,12.85-24.38,12.6-38.78-.16-8.97,.16-17.96-.07-26.93-.47-18.05,1.35-36.15-.97-54.16-2.83-21.95-13.33-40.05-30-54-21.98-18.38-47.52-24.59-75.8-18.66-38.64,8.1-68.48,43.56-68.75,83.33-.16,23.6,.07,47.21-.07,70.81-.08,14.24,4.32,26.93,12.55,38.34,1.44,2,1.38,2.83-.32,4.37-4.28,3.9-8.02,8.3-11.42,13.01-11.83,16.34-17.56,34.53-16.67,54.69,.17,3.76-.71,4.98-4.76,4.94-22.27-.23-44.55-.11-66.83-.11-7.59,0-7.56,0-8.32-7.7-.16-1.62-.74-3.2-.95-4.83-2.43-18.81-9.89-35.41-22.05-49.9-12.89-15.35-28.89-26-48.24-31.51-1.38-.39-2.71-1.15-3-2.82-.39-2.19,1.65-2.05,2.72-2.53,11.51-5.15,18.88-13.92,22.45-25.86,.58-1.95,1.05-2.51,3.07-2.62,23.32-1.24,37.47-25.99,26.65-46.68-1.14-2.19-1.43-3.85-.76-6.36,3.27-12.19,5.48-24.39,3.32-37.27-4.91-29.22-32.16-53.34-62.25-53.29-16.46,.02-32.92-.14-49.37,.04-20.98,.23-37.67,9.49-50.18,25.83-13.2,17.25-16.09,36.83-10.41,57.67,1.58,5.81,2.15,10.98-.35,17.09-8.48,20.72,7.21,42.39,28.06,42.97,2.21,.06,2.39,.97,2.93,2.76,3.41,11.41,10.52,19.82,21.19,25.2,1.5,.76,4.19,.79,4.06,2.75-.14,2.21-2.5,2.69-4.63,3.41-28.63,9.71-49.62,27.86-61.9,55.86-6.83,15.59-8.32,31.84-7.99,48.58,.09,4.52,1.29,5.28,5.49,5.27,80.63-.13,161.26-.1,241.89-.1,80.13,0,160.26,0,240.39,0,7.25,0,7.39,0,7.22-7.25-.27-11.21,.88-22.45-1.46-33.63Zm-331.57-118.9c-2.03,.33-2.19-.57-2.17-2.12,.04-4.64,.01-9.29,.01-13.93,0-4.48,.03-8.95-.02-13.43-.01-1.53,.14-2.47,2.16-2.18,7.09,1.04,13.61,8.29,13.82,15.58,.21,7.24-6.43,14.86-13.8,16.07Zm-66.08-108.01c-.05-2.73,.59-3.77,3.51-3.63,4.97,.24,9.96,.07,17.23,.07,9.9-.38,22-.25,33.05,6,14.06,7.95,22.44,19.67,25.28,35.8,1.28,7.29-.1,14-1.28,20.89-.35,2.02-1.05,4.3-4.27,2.51-1.63-.91-3.83-1.51-5.64-1.26-7.88,1.09-14.33-2.31-20.98-5.7-14.41-7.37-28.94-14.52-43.48-21.63-2.55-1.25-3.52-2.74-3.45-5.65,.21-9.13,.18-18.27,.02-27.4Zm-51.19,107.52c-8.68-2.11-12.21-8.95-12.51-15.43-.33-7.01,5.68-13.6,13.08-15.53,2.39-.62,2.88,.08,2.83,2.29-.11,4.48-.03,8.96-.03,13.44,0,4.31-.09,8.63,.03,12.94,.08,2.84-.54,2.99-3.4,2.29Zm4.45-49.91c-.28,.94,.56,2.7-1.36,2.61-3.84-.19-7.39,.83-11,1.95-2.02,.62-2.28-1.64-2.61-2.86-7.64-28.16,8.78-54.81,36.51-61.7,9.27-2.3,9.3-2.19,9.3,7.33,0,2.66,0,5.32,0,7.98,0,.5-.03,1,0,1.5,.67,8.53,.88,15.25-10.47,18.74-10.64,3.27-17.03,13.38-20.38,24.46Zm35.41,162.91c-3.7,9.01-6.5,18.41-9.4,27.73-.82,2.65-1.89,3.65-4.71,3.63-16.95-.12-33.9-.12-50.85,0-2.88,.02-3.65-.72-3.34-3.64,1.84-17.1,7.09-32.86,17.97-46.39,4.96-6.17,10.63-11.7,17.58-16.6,2.2,10.7,4.32,20.96,6.52,31.63,6.7-3.98,13.21-7.74,19.58-11.71,1.93-1.2,2.76-1.13,4.33,.74,3.8,4.53,4.7,8.82,2.33,14.6Zm-12.88-30.69c-1.59,.98-2.35-.32-2.49-1.23-.49-3.37-1.01-6.71-2.06-9.96-.28-.87,.15-1.56,.83-2.15,3.39-2.96,10.73-3.34,14.69-.74,1.77,1.16,3.53,2.33,5.84,3.86-5.88,3.57-11.36,6.87-16.82,10.23Zm41.33,62.03c-2.98-.17-5.98-.04-9.74-.04-3.21-.63-8.7,1.98-10.83-1.06-1.81-2.59,1.82-7.17,2.9-10.91,1.58-5.46,3.62-10.79,5.46-16.18,.55-1.63,.42-3.71,3.01-3.79,2.55-.07,2.62,1.84,3.19,3.55,2.77,8.35,5.55,16.7,8.48,24.99,.93,2.64,.42,3.6-2.46,3.44Zm-17.89-56.26c.08-1.01,7.4-5.63,8.88-5.6,1.63,.03,8.68,4.65,8.71,5.71,.08,2.58-5.99,8.24-8.82,8.24-2.71,0-8.95-5.95-8.77-8.34Zm21.87-34.25c-.59,.55-1.32,.96-1.99,1.42q-11.73,7.96-23-.56c-.98-.74-2.57-1.22-1.56-2.97,.76-1.31,.74-3.24,3.1-3.21,6.96,.09,13.92,.08,20.88,0,2.63-.03,2.18,2.48,3.54,3.86-.29,.45-.53,1.05-.96,1.45Zm-28.51-21.28c-13.76-.15-24.35-10.93-24.44-24.76-.05-7.64,0-15.29,0-24.83,.74-8-1.34-18,1.02-27.82,2.5-10.4,10.07-16.16,20.13-18.17,1.38-.28,2.22,.61,3.16,1.08,17.44,8.66,34.82,17.46,52.28,26.09,2.39,1.18,3.34,2.47,3.3,5.23-.16,12.96,.24,25.94-.16,38.89-.44,14.2-10.25,23.76-24.37,24.24-10.29,.35-20.61,.16-30.91,.05Zm35.75,36.16c4.47-3.02,10.83-3,15.26-.04,1.1,.73,1.81,1.64,1.03,2.88-1.29,2.05-1.24,4.6-1.4,6.64-.38,5.11-1.88,5.01-5.51,2.58-4.46-2.99-9.17-5.6-14.19-8.63,2.13-1.53,3.45-2.52,4.81-3.43Zm64.86,75.63c-17.61-.07-35.23-.08-52.84,.02-2.23,.01-2.81-1.29-3.33-2.86-3.73-11.27-7.45-22.55-11.13-33.84-.65-2.01,3.78-10.91,5.66-11.01,1.12-.06,2.34,.89,3.43,1.53,6.16,3.67,12.3,7.38,18.67,11.22,2.21-10.73,4.32-21.01,6.54-31.81,20.29,15.57,32.6,34.99,34.66,60.31,.09,1.15,.4,2.29,.68,3.41,.51,2.03,.08,3.03-2.34,3.02Zm130.38-183.18c.62-33.33,21.25-61.35,54.35-69.92,39.41-10.21,79.91,15.55,87.36,55,1.11,5.85,1.96,11.66,1.95,17.62-.05,21.61,.18,43.21-.1,64.81-.15,10.98-3.58,21.09-10.26,30.02-1.21,1.61-1.84,1.74-3.43,.78-7.05-4.26-14.84-6.72-22.71-8.86-1.86-.51-3.39-1.32-4.66-2.61-3.58-3.63-3.26-5.67,.84-8.69,15.72-11.61,24.57-26.83,24.36-46.77-.06-5.65,0-11.3-.01-16.95-.02-12.12-10.66-23.05-22.74-22.75-13.02,.32-25.18-1.59-35.46-10.43-6.16-5.29-10.35-11.83-12.53-19.55-.79-2.79-1.68-4.1-4.65-3.04-.9,.32-1.91,.34-2.86,.55-3.13,.71-8.28,.65-8.96,2.36-1.27,3.19,.92,7.4,2.74,10.46,2.58,4.32,.81,5.25-2.85,6.65-13.05,5-25.07,19.9-24.39,36.02,.44,10.34-1.1,20.71,1.7,31.04,3.55,13.1,10.8,23.32,21.44,31.43,1.74,1.33,5.41,1.27,4.63,4.65-.84,3.65-2.99,6.52-6.99,7.55-5.99,1.54-11.86,3.44-17.49,6.02-.45,.21-.89,.43-1.33,.64-7.04,3.31-6.82,3.18-11.06-4.08-4.93-8.45-6.84-17.55-6.88-27.16-.04-10.64,0-21.27,0-31.91,0-10.97-.17-21.94,.03-32.91Zm85.75,119.3c-4.65,0-9.29,0-13.94,0-6.31,0-12.61-.08-18.92,.04-2.59,.05-4.27-.54-4.02-3.51,.13-1.54-.6-2.92-.77-4.35-.54-4.73-1.11-9.32,3.96-12.67,2.89-1.91,5.11-4.95,6.01-8.73,.64-2.69,1.84-4.12,5.62-3.2,5.4,1.32,11.31,1.27,16.74,0,3.34-.78,4.22,.35,4.84,2.78,.98,3.84,3.16,7.21,6.2,9.17,5.17,3.33,4.75,7.95,4,12.62-1.28,7.89-1.48,7.86-9.73,7.86Zm.68,16c-2.98,5.94-7.84,9.72-12.76,13.4-1.28,.96-2.73,.72-4.12-.29-4.8-3.49-9.17-7.38-12.56-13.11h29.43Zm-26.76-66.12c-15.06-5.04-24.37-15.56-26.83-31.7-1.4-9.21-1.83-18.43,.15-27.5,2.49-11.43,11.31-16.89,21.41-18.36,2.66-.39,4.19,1.78,5.87,3.14,10.7,8.61,22.8,13.02,36.55,12.81,1.83-.03,3.65-.04,5.48,0,5.84,.15,9.3,3.65,9.41,9.55,.05,2.66,0,5.31,0,8.84,.65,11.87-1.96,23.74-11.17,33-11.41,11.47-25.38,15.41-40.88,10.22Zm96.37,114.02c-56.2-.07-112.39-.07-168.59-.02-2.3,0-3.48-.19-3.52-3.12-.4-29.55,13.84-56.5,42.26-69.73,1.6-.74,3.27-1.34,5.44-2.22,.21,7.9,1.53,15.31,4.21,22.45,6.3,16.8,17.86,28.72,33.72,36.72,1.38,.7,2.5,1,4.12,.18,20.07-10.17,32.96-25.8,37.04-48.22,.32-1.77,.79-3.52,.96-5.31,.17-1.78,.04-3.58,.04-5.97,21.76,8.44,36.26,23.18,43.8,44.6,3.07,8.72,4.06,17.87,4.15,27.13,.03,2.9-.91,3.52-3.64,3.51Z"/>
  <path class="cls-1" d="M520.7,127.28c-.8-19.76-8.07-36.52-22.58-49.98-.41-.51-.85-.97-1.34-1.39-18.05-15.91-39.09-21.44-62.49-16.93-13.25,2.55-25.19,8.37-34.64,18.44-14.56,13.16-21.75,29.72-22.64,49.16-.72,15.75,3.57,30.08,12.31,43.14,.69,1.03,2.15,1.98,.12,3.5-7.52,5.61-14.9,11.42-22.34,17.14-22.69,17.47-45.36,34.96-68.08,52.38-5.78,4.43-11.19,9.39-17.8,13.35,0-28.2,.04-55.79-.06-83.39-.01-2.97,1.02-3.99,3.85-4.41,18.79-2.79,33.73-12.31,45.24-27.09,13.15-16.89,17.58-36.26,13.7-57.17-2.63-14.13-8.76-26.81-19.7-36.69-15.98-16.97-36.03-23.43-58.69-21.33-15.38,1.42-29.26,7.38-40.48,18.51,.46,.27,.64,.54,.65,.8-.17-.23-.38-.48-.65-.8-20.95,19.25-27.72,43-21.6,70.42,6.05,27.08,31.06,49.87,57.93,53.35,3.17,.41,3.95,1.77,3.94,4.83-.12,25.76-.07,51.52-.07,77.28,0,1.74,0,3.48,0,6.16-37-28.57-73.27-56.57-109.57-84.6,9.55-13.63,14.49-28.55,13.8-45.21-.81-19.55-8.26-36.03-22.66-49.33-.3-.39-.54-.83-.9-1.15-18.23-16.3-39.49-21.91-63.3-17.16-13.09,2.61-24.83,8.38-34.17,18.3-13.71,11.97-20.91,27.49-22.49,45.19-1.96,21.85,4.78,41.08,20.3,57.05,12.02,12.38,26.68,19.68,43.57,21.41,18.31,1.88,35.48-2.38,50.34-13.91,2.72-2.11,4.9-3.21,8.3-.48,14.79,11.82,29.84,23.31,44.81,34.91,22.49,17.44,44.9,34.98,67.57,52.18,3.34,2.54,4.5,4.95,4.48,8.93-.14,27.59-.07,55.19-.07,82.78,0,11.37,0,11.21,11.13,11.43,3.74,.07,4.96-.71,4.94-4.77-.2-30.25-.08-60.51-.16-90.76,0-2.66,.47-4.72,2.68-6.41,13.29-10.2,26.51-20.49,39.77-30.73,24.62-19,49.3-37.91,73.8-57.06,3.5-2.74,5.72-2.47,9.11,.07,17.24,12.96,36.73,16.96,57.63,12.5,33.41-7.14,57.93-37.98,56.54-72.48ZM123.89,178.57c-8.32,4.32-17.17,6.12-26.16,6.83-9.62-.64-18.6-2.7-26.96-7.22-2.53-1.37-3.65-2.65-2.1-5.78,5.88-11.78,15.39-18.54,28.32-18.84,13.01-.31,22.71,6.23,29.04,17.74,1.88,3.42,1.6,5.32-2.14,7.27Zm-42.21-57.55c.27-8.28,8-15.7,16.16-15.53,8.57,.18,16.14,8.08,15.76,16.43-.38,8.32-8.05,15.66-16.16,15.49-8.48-.18-16.03-8.03-15.76-16.39Zm59.26,43.58c-4.34-8.4-10.27-14.97-17.89-19.85-3-1.92-.51-3.17,.22-4.25,8.62-12.73,8.82-25.92,.05-38.05-7.59-10.51-18.39-14.56-30.81-12.62-13.12,2.05-22,10.13-25.7,22.97-2.83,9.82-1.15,19.16,5.07,27.54,.98,1.32,3.28,2.84,.18,4.69-7.7,4.58-13.17,11.3-17.51,19.06-16.78-19.03-16.58-50.98,.15-70.08,5.2-5.94,11.25-10.65,18.01-14.57,13.92-6.47,28.22-7.47,42.9-2.99,13.67,5.41,24.71,14.01,31.35,27.3,10.62,21.25,8.02,41.43-6.01,60.85Zm89.2-32.35c-16.75-19.26-16.59-50.68-.03-69.98,4.71-5.49,10.29-9.76,16.2-13.75,.05-.03,.11-.05,.16-.08,17.87-8.98,35.74-8.99,53.61,.02,.03,.02,.06,.03,.1,.05,13.3,8.2,22.83,19.4,26.88,34.69,4.74,17.9,.74,34.09-10.43,49.29-4.76-8.28-10.63-15.14-18.57-20.07-2.23-1.38,.04-2.65,.67-3.61,8.97-13.52,8.86-26.84-.47-39.39-7.35-9.88-22.49-14.46-34.83-10.53-12.57,4.01-21.92,16.54-22.17,29.23-.15,7.53,1.67,14.32,6.3,20.26,1.7,2.18,2.07,3.4-.77,5.22-7.19,4.61-12.63,10.99-16.64,18.64Zm59.05-43.02c.17,8.32-7.12,15.95-15.53,16.25-8.46,.31-16.31-7.31-16.38-15.89-.07-8.38,7.32-15.88,15.77-16.02,8.38-.13,15.97,7.23,16.14,15.65Zm-15.95,64.25c-9.36-.68-18.37-2.57-26.75-7.12-2.92-1.59-3.65-3.27-2.13-6.18,6.15-11.78,15.83-18.62,29.08-18.56,13.05,.07,22.54,6.95,28.65,18.48,1.52,2.88,1.06,4.59-2.02,6.23-8.42,4.49-17.41,6.44-26.83,7.15Zm201.86,25.08c-8.31,4.33-17.15,6.15-26.18,6.84-9.59-.64-18.58-2.69-26.94-7.21-2.53-1.37-3.68-2.64-2.12-5.76,5.87-11.78,15.36-18.55,28.3-18.87,13.25-.32,23.01,6.46,29.32,18.14,1.76,3.27,1.04,5.08-2.38,6.86Zm-42.24-57.58c.29-8.28,8.02-15.67,16.2-15.49,8.56,.19,16.1,8.09,15.73,16.46-.38,8.3-8.09,15.65-16.2,15.45-8.47-.21-16.01-8.09-15.72-16.43Zm59.27,43.66c-4.37-8.52-10.36-15.03-17.95-19.96-2.95-1.92-.37-3.21,.34-4.25,8.57-12.49,8.74-25.92-.07-38.08-7.49-10.33-18.17-14.41-30.39-12.58-13.3,1.99-22.38,10.06-26.07,23.18-2.78,9.86-1.16,19.24,5.26,27.48,1.78,2.29,1.83,3.5-.97,5.25-7.26,4.53-12.56,11.04-16.61,18.65-22.1-28.35-13.78-67.7,17.66-84.49,.86-.46,1.72-.93,2.58-1.39,.07-.03,.13-.05,.2-.08,13.2-5.4,26.63-6.13,40.29-2.04,.14,.04,.28,.08,.42,.12,14.14,5.67,25.34,14.64,31.97,28.66,9.93,21,6.91,40.59-6.62,59.53Z"/>
  <path class="cls-1" d="M273.16,440.68q8.06,0,8.06-7.91,0-8.06-7.91-8.06t-8.06,7.91,7.91,8.06Z"/>
</svg>