<?xml version="1.0" encoding="UTF-8"?>
<svg id="Capa_1" data-name="Capa 1" xmlns="http://www.w3.org/2000/svg" viewBox="0 0 511.26 447.46">
  <defs>
    <style>
      .cls-1 {
        fill: #00a7bd;
      }
    </style>
  </defs>
  <path class="cls-1" d="M510.92,437.07c-.99-5.63-2.34-11.19-3.46-16.79-3.83-19.18-7.62-38.37-11.45-57.56-3.8-19.05-7.63-38.1-11.43-57.15-2.88-14.47-5.76-28.81-5.7-43.8,.35-83.95,.1-167.91,.32-251.86C479.22,4.17,475.05,0,469.28,0,326.98,.19,184.68,.15,42.37,.15c-7.57,0-10.27,2.74-10.27,10.43,0,87.78,0,175.56-.03,263.33,0,2.09-.12,4.14-.64,6.3-1.78,7.42-2.85,15-4.33,22.5-3.39,17.17-6.85,34.34-10.31,51.5-3.86,19.19-7.67,38.39-11.67,57.56-1.56,7.48-2.36,15.13-4.95,22.38v7.98c2.44,3.59,5.58,5.09,10.15,5.08,163.25-.11,326.5-.1,489.75-.1,.83,0,1.66,.03,2.49,0,5.23-.22,9.26-4.89,8.35-10.04ZM47.96,21.1c0-4.15,.96-5.11,5.1-5.1,67.51,.15,135.01,.1,202.52,.1s135.01,.04,202.52-.1c4.14,0,5.11,.95,5.1,5.1-.14,81.81-.14,163.61,0,245.42,0,4.15-.96,5.1-5.1,5.1-135.01-.12-270.02-.12-405.03,0-4.14,0-5.11-.95-5.1-5.1,.14-81.81,.14-163.61,0-245.42ZM18.32,430.96c3.04-15.55,6.02-31.03,9.11-46.48,3.5-17.49,7.16-34.94,10.65-52.43,2.76-13.85,5.33-27.73,8.05-41.59,.36-1.84,1.23-3.4,3.65-3,.97,.16,1.99,.03,2.99,.03,135.33,0,270.66,0,405.98-.05,3.85,0,5.78,.24,6.69,5.2,4.8,26.14,10.35,52.15,15.61,78.21,4.03,19.96,8.03,39.92,12.09,60.11H18.32Z"/>
  <path class="cls-1" d="M447.13,41.81c0-7-2.75-9.74-9.78-9.74-60.52,0-121.04,0-181.55,0-60.35,0-120.7,.1-181.05-.14-7.06-.03-10.87,4.02-10.85,10.63,.23,67.67,.22,135.34,0,203.01-.02,6.02,3.9,10.13,10.19,10.12,120.87-.19,241.74-.14,362.61-.14,7.69,0,10.44-2.69,10.44-10.24,0-67.84,0-135.67,0-203.51Zm-20.96,197.89c-56.86-.15-113.73-.1-170.59-.1s-113.73-.05-170.59,.11c-4.15,.01-5.11-.96-5.1-5.1,.15-60.52,.15-121.05,0-181.57-.01-4.15,.97-5.1,5.1-5.09,113.73,.13,227.45,.13,341.18,0,4.14,0,5.11,.96,5.1,5.1-.15,60.52-.15,121.05,0,181.57,.01,4.15-.97,5.11-5.1,5.1Z"/>
  <path class="cls-1" d="M471.96,404.03c-6.3-30.78-12.58-61.56-18.83-92.34-1.21-5.96-3.76-8.24-9.64-8.24-125.36,0-250.71,.01-376.07-.07-5.12,0-8.28,2.02-9.3,6.83-2.48,11.61-4.72,23.28-7.05,34.92-3.83,19.12-7.45,38.28-11.57,57.33-1.72,7.94,2.21,12.91,9.79,12.89,68.66-.27,137.33-.16,205.99-.16,69,0,137.99,0,206.99,0,6.76,0,10.96-4.94,9.69-11.15Zm-325.07-40.54c-1.09,9.13-1.85,18.31-2.94,27.44-.33,2.73,1.36,6.65-.96,7.89-2.46,1.32-6.15,.39-9.3,.39-25.42,0-50.84,0-76.41,0,2.29-11.98,4.56-23.69,6.75-35.4,.55-2.96,1.44-4.64,5.19-4.61,24.44,.21,48.88,.18,73.31,.03,3.38-.02,4.79,.61,4.36,4.26Zm3.88-39.64c-.8,5.51-1.42,11.05-1.87,16.6-.15,1.91-.24,2.96-2.63,2.95-25.89-.08-51.79-.05-77.78-.05,1.22-6.8,2.36-13.33,3.57-19.84,.51-2.73,1.58-4.25,5.04-4.22,23.25,.21,46.5,.2,69.74,.01,3.79-.03,4.41,1.24,3.93,4.53Zm15.96-.47c.12-2.92,.93-4.05,4.06-4.03,24.44,.12,48.88,.11,73.32,0,2.82-.01,3.66,.75,3.56,3.57-.22,5.81-.11,11.64-.04,17.46,.02,1.86-.05,3.04-2.54,3.04-26.58-.08-53.17-.05-79.72-.05,.49-6.89,1.1-13.43,1.36-19.98Zm80.9,72.58c0,2,.07,3.35-2.75,3.34-28.22-.11-56.44-.07-84.78-.07,.61-6.62,1.02-12.67,1.75-18.69,.72-6.02,.86-12.09,1.72-18.12,.45-3.17,1.72-3.15,4.05-3.13,13.79,.07,27.57,.03,41.36,.03,11.63,0,23.26,.12,34.88-.08,3.09-.05,3.88,.74,3.83,3.83-.21,10.96-.11,21.93-.05,32.89Zm15.85-56.24c.31-5.62,.17-11.28,.05-16.92-.05-2.35,.26-3.47,3.14-3.46,24.72,.13,49.43,.12,74.15,.02,2.85-.01,3.55,.87,3.65,3.65,.23,6.57,.93,13.12,1.5,20.35h-27.3c-17.09,0-34.17-.07-51.26,.06-2.88,.02-4.11-.42-3.93-3.71Zm84.65,59.48c-13.62,.06-27.23,.03-40.85,.03-13.12,0-26.24-.11-39.35,.08-3.29,.05-4.57-.5-4.47-4.2,.28-10.62,.18-21.25,.04-31.88-.04-2.77,.26-4.03,3.63-4,25.57,.17,51.14,.1,76.71,.07,2.12,0,3.26,.07,3.85,2.88,1.06,5.06,.74,10.17,1.46,15.23,.92,6.48,.95,13.12,2.05,19.62,.53,3.13-1.72,2.16-3.08,2.16Zm14.15-57.64c-.51-6.41-1.22-12.8-1.97-19.19-.29-2.5,.69-3.01,3.04-3.01,23.92,.08,47.84,.12,71.76-.03,3.36-.02,3.6,1.98,4.04,4.23,1.25,6.41,2.5,12.82,3.85,19.79-26.2,0-52.1,0-78,0-1.26,0-2.55,.35-2.72-1.8Zm68.32,57.67c-19.76,0-39.51-.07-59.27,.07-3.18,.02-3.94-.76-4.14-4.02-.65-10.51-1.77-21-2.92-31.48-.41-3.71,.73-4.62,4.48-4.59,24.4,.19,48.81,.15,73.21,.03,2.89-.01,4.59,.64,5.15,3.6,2.27,12,4.6,24,6.98,36.38h-23.5Z"/>
  <path class="cls-1" d="M95.96,199.58c0-5.14-.04-10.28,.01-15.41,.05-5.18,3.26-8.48,8.06-8.43,4.79,.05,7.84,3.36,7.88,8.64,.04,6.46,.23,12.94-.08,19.39-.16,3.43,1.07,4.33,4.16,3.93,1.47-.19,2.98-.11,4.47-.02,4.4,.28,7.46,3.65,7.42,8.07-.04,4.35-3.21,7.75-7.63,7.85-5.63,.13-11.27,.14-16.9,0-4.08-.11-7.27-3.44-7.36-7.6-.12-5.47-.03-10.94-.03-16.41Z"/>
  <path class="cls-1" d="M151.39,223.63c-2.65,0-5.3,.09-7.94-.02-4.44-.19-7.55-3.48-7.59-7.86-.04-4.36,3.08-7.92,7.42-8.04,5.62-.16,11.25-.14,16.87,0,4.39,.11,7.61,3.57,7.64,7.87,.03,4.58-3.22,7.91-7.96,8.04-2.81,.08-5.62,.01-8.43,.01Z"/>
</svg>