<?xml version="1.0" encoding="UTF-8"?>
<svg id="Capa_1" data-name="Capa 1" xmlns="http://www.w3.org/2000/svg" viewBox="0 0 437.1 527.24">
  <defs>
    <style>
      .cls-1 {
        fill: #00a7bd;
      }
    </style>
  </defs>
  <path class="cls-1" d="M425.63,10.54H144.78c-4.6,2.87-6.07,7.05-6.06,12.38,.09,67.44,0,134.87,.18,202.31,.01,4.51-1.2,5.32-5.44,5.3-32.13-.19-64.27-.1-96.41-.11-7.51,0-12.92,2.37-12.83,12.43,.05,5.66-.02,11.32,.02,16.98,.04,6.57,.06,6.57-6.46,6.57-8.42,0-10.93,2.5-10.93,10.87-.01,78.26,0,156.52-.12,234.78,0,4.95,1.96,8.08,6.12,10.22H337.68c4.23-3.57,5.1-8.18,5.08-13.55-.15-40.79-.01-81.59-.19-122.38-.02-4.16,.97-5.15,5.12-5.11,24.14,.22,48.28,.11,72.43,.11,7.11,0,10.51-3.4,10.51-10.53,0-116.72-.02-233.44,.1-350.16,0-4.58-1.98-7.46-5.1-10.12ZM138.85,288.91c.04,2.86-.89,3.31-3.58,3.61-7.01,.78-12.28-1.26-16.87-6.82-4.54-5.49-10.13-10.11-15.04-15.32-2.68-2.84-5.56-4.1-9.53-4.05-15.66,.19-31.32-.02-46.97,.16-3.25,.04-4.35-.8-4.08-4.09,.34-4.12-1.38-9.68,.7-12.06,2.42-2.75,8.1-.84,12.35-.88,11.49-.11,22.99-.04,34.48-.04,14.82,0,29.65,.1,44.47-.08,3.28-.04,4.13,.84,4.08,4.1-.2,11.82-.17,23.65-.01,35.48Zm185.79,203.62q0,11.75-11.95,11.75c-45.97,0-91.94,0-137.91,0-48.13,0-96.27-.07-144.4,.11-4.66,.02-5.61-1.29-5.61-5.76,.14-69.79,.12-139.57,0-209.36,0-3.83,.83-5.02,4.86-4.97,19.32,.23,38.64,.16,57.96,.04,2.71-.02,4.58,.78,6.45,2.72,6.47,6.71,13.17,13.2,19.68,19.87,2.69,2.76,5.78,3.75,9.6,3.74,65.95-.11,131.9-.09,197.86-.27,4.74-.01,3.47,2.9,3.47,5.25,.03,58.96,0,117.92,0,176.88Zm-105.38-200.14c-8.56,0-16.3-.02-24.05,.02-1.52,0-2.35-.22-2.51-2.1-.74-8.69,2.26-16.31,6.47-23.59,1.43-2.47,2.46-.99,3.5,.6,5.29,8.08,10.65,16.12,16.59,25.07Zm-.93-40.83c11.75-3.82,23.09-3.11,33.95,3.1,2.61,1.5,2.58,3.26,1.04,5.53-5.58,8.19-11.11,16.42-16.96,25.07-6.62-9.95-12.91-19.61-19.45-29.1-1.79-2.59-1.09-3.77,1.42-4.59Zm36.72,38.53c3.92-5.99,7.97-11.9,12.19-18.17,3.6,5.94,3.69,12.07,4.46,18.03,.2,1.56-.3,2.49-2.14,2.45-4.32-.07-8.64-.07-12.95,0-1.9,.03-2.58-.76-1.56-2.32Zm152.26,73.37c-20.15-.24-40.3-.21-60.44-.02-3.59,.03-4.31-1-4.28-4.41,.18-18.32,.09-36.63,.08-54.95,0-8-3.69-11.67-11.78-11.68-12.49-.03-24.98-.13-37.46,.08-3.17,.05-3.73-.91-3.81-3.89-.69-28.31-18.62-51.78-47.86-56.84-30.39-5.26-59.03,13.2-66.07,44.44-.92,4.1-1.05,8.17-.94,12.27,.08,2.89-.52,4.34-3.81,3.98-4.42-.48-10.29,1.83-12.91-.95-2.22-2.35-.92-8.16-.92-12.43-.04-80.07-.06-160.14-.05-240.21,0-10.31,.08-10.31,10.39-10.31,79.76,0,159.52,.05,239.28-.11,4.83,0,6.02,1.18,6.01,6-.19,53.95-.12,107.9-.12,161.85s-.06,107.9,.12,161.85c.02,4.5-1.17,5.38-5.44,5.33Z"/>
  <path class="cls-1" d="M148.84,419.8c.19-2.86-.77-3.58-3.58-3.54-13.65,.15-27.31,.07-40.96,.07-10.32,0-20.65-.02-30.97,0-4.31,0-10.04-1.56-12.56,.59-2.93,2.5-.48,8.42-1.02,12.81-.45,3.64,.62,4.73,4.49,4.7,23.48-.21,46.96-.05,70.43-.16,4.59-.02,10.86,2.12,13.31-.95,2.3-2.88,.55-8.9,.86-13.52Z"/>
  <path class="cls-1" d="M112.93,455.19c.31-3.5-1.15-3.99-4.19-3.95-11.45,.16-22.91-.03-34.36,.11-4.75,.06-11.25-2.16-13.77,.86-2.4,2.87-.54,9.16-.9,13.92-.23,3.06,1.05,3.41,3.67,3.35,7.47-.18,14.94-.06,22.41-.06v-.02c4.32,0,8.64,.08,12.95-.02,4.61-.11,10.89,1.94,13.34-.82,2.33-2.63,.45-8.79,.86-13.36Z"/>
  <path class="cls-1" d="M138.17,451.31q-8.13,0-8.29,8.16-.19,9.91,9.81,9.9,9.09,0,9.09-7.43,0-10.63-10.61-10.63Z"/>
  <path class="cls-1" d="M359.66,93.7c0,3.94-.11,6.38,.02,8.8,.26,4.59-2.06,10.89,.94,13.29,2.86,2.29,8.9,.47,13.53,.75,2.82,.17,3.61-.72,3.58-3.56-.15-13.48-.03-26.97-.09-40.45-.03-5.86-3-9-8.73-9.03-13.65-.09-27.3,.04-40.95-.06-2.47-.02-3.57,.4-3.37,3.2,.27,3.81,.3,7.67,0,11.48-.24,3.09,1.06,3.51,3.69,3.43,5.77-.17,11.55-.05,17.32-.05,.18,.43,.37,.85,.55,1.28-26.51,26.32-53.05,52.61-79.48,79.01-2.25,2.24-3.23,2.66-5.41-.16-8.48-10.96-17.25-21.71-25.97-32.49-3.84-4.75-9.99-5.57-14.18-1.46-14.24,14-28.28,28.21-42.45,42.29-1.53,1.52-1.52,2.56,.02,4,2.67,2.5,5.39,4.99,7.74,7.78,2.31,2.73,3.75,3.05,6.51,.17,10.14-10.57,20.72-20.71,30.92-31.23,2.4-2.47,3.79-2.34,5.75,.16,8.35,10.62,16.82,21.14,25.13,31.79,4.63,5.94,9.87,6.37,15.28,.96,21.55-21.52,43.11-43.04,64.63-64.59,8.05-8.06,16.01-16.22,24.98-25.31Z"/>
  <path class="cls-1" d="M338.18,204.59v.02c8.49,0,16.97,.03,25.46-.01,4.59-.02,11.09,1.61,13.25-.72,2.35-2.55,.48-8.83,.84-13.46,.26-3.34-.91-4.07-4.1-4.05-20.63,.15-41.27,.05-61.9,.09-4.46,0-10.39-1.48-13.01,.78-3.05,2.64-.52,8.76-1.06,13.32-.39,3.33,.87,4.14,4.08,4.1,12.15-.18,24.29-.07,36.44-.07Z"/>
  <path class="cls-1" d="M377.72,260.91c.18-2.85-.75-3.61-3.57-3.57-10.66,.16-21.32,.07-31.97,.07-7.16,0-14.33-.12-21.48,.04-4.59,.1-10.72-2.04-13.33,.93-2.25,2.56-.4,8.57-.74,13.02-.25,3.3,.83,4.11,4.08,4.08,17.65-.16,35.31-.01,52.96-.12,4.59-.03,10.89,2.08,13.3-.91,2.29-2.86,.47-8.91,.76-13.53Z"/>
  <path class="cls-1" d="M377.72,154.95c.18-2.87-.78-3.61-3.58-3.55-8.99,.17-17.99,.07-26.98,.06-14.86,0-14.77,0-14.13,15.06,.11,2.58,.92,3.02,3.17,2.97,6.33-.12,12.66-.04,18.99-.04,2.83,0,5.67,.12,8.49-.03,4.59-.24,10.89,2.07,13.29-.94,2.29-2.87,.46-8.91,.75-13.54Z"/>
  <path class="cls-1" d="M338.21,240.53c5.79-.42,11.63-.1,17.44-.1,2.49,0,4.99,.11,7.48-.02,4.75-.25,11.27,2.12,13.77-.92,2.39-2.9,.48-9.19,.83-13.96,.2-2.82-.92-3.24-3.34-3.22-10.64,.09-21.27,.02-31.91,.02q-9.27,0-9.26,9.46c0,1.16,.15,2.35-.01,3.49-.56,3.93,.65,5.58,5,5.27Z"/>
</svg>